<svg xmlns="http://www.w3.org/2000/svg" version="1.1" xmlns:xlink="http://www.w3.org/1999/xlink" xmlns:svgjs="http://svgjs.com/svgjs" width="500" height="250" preserveAspectRatio="none" viewBox="0 0 500 250"><g mask="url(&quot;#SvgjsMask1090&quot;)" fill="none"><path d="M85.857,18.835C94.066,18.474,98.527,10.091,102.379,2.833C105.903,-3.807,108.853,-11.311,105.401,-17.989C101.71,-25.129,93.89,-29.372,85.857,-29.128C78.199,-28.896,72.078,-23.508,68.264,-16.863C64.471,-10.253,63.243,-2.43,66.612,4.406C70.411,12.115,77.271,19.212,85.857,18.835" fill="rgba(66, 194, 255, 0.32)" class="triangle-float1"></path><path d="M466.19,265.913C489.968,266.785,515.389,262.329,528.539,242.499C542.926,220.803,543.17,192.117,530.023,169.648C516.999,147.388,491.98,135.903,466.19,135.939C440.468,135.975,414.834,147.164,402.667,169.827C391.022,191.519,397.714,217.66,411.291,238.198C423.408,256.526,444.234,265.107,466.19,265.913" fill="rgba(66, 194, 255, 0.32)" class="triangle-float1"></path><path d="M175.835,279.922C196.679,279.796,217.52,270.46,227.011,251.902C235.874,234.572,227.231,215.158,217.613,198.235C207.834,181.031,195.621,162.206,175.835,161.864C155.678,161.516,141.551,179.283,131.483,196.749C121.431,214.187,114.103,234.768,123.574,252.529C133.493,271.13,154.754,280.05,175.835,279.922" fill="rgba(66, 194, 255, 0.32)" class="triangle-float3"></path><path d="M362.033,111.931C375.478,112.36,389.514,107.278,395.874,95.424C401.986,84.032,397.403,70.343,390.05,59.71C383.755,50.607,373.099,46.68,362.033,46.487C350.541,46.287,338.509,49.049,332.271,58.703C325.548,69.109,325.692,82.563,331.738,93.376C337.932,104.454,349.347,111.526,362.033,111.931" fill="rgba(66, 194, 255, 0.32)" class="triangle-float2"></path><path d="M281.014,278.963C304.839,277.079,317.863,253.764,329.521,232.901C340.766,212.778,352.152,190.371,342.114,169.619C331.002,146.648,306.473,130.884,281.014,132.625C257.651,134.222,244.682,156.878,232.851,177.088C220.833,197.619,206.943,220.281,217.111,241.789C228.4,265.667,254.684,281.045,281.014,278.963" fill="rgba(66, 194, 255, 0.32)" class="triangle-float2"></path><path d="M31.94,174.362C39.08,173.94,44.958,169.391,48.573,163.22C52.236,156.968,53.431,149.551,50.307,143.013C46.693,135.45,40.321,128.266,31.94,128.413C23.712,128.558,18.637,136.436,14.659,143.64C10.86,150.52,7.658,158.562,11.511,165.412C15.417,172.357,23.986,174.832,31.94,174.362" fill="rgba(66, 194, 255, 0.32)" class="triangle-float2"></path><path d="M200.146,120.244C209.703,120.492,220.658,119.948,225.509,111.71C230.402,103.401,225.572,93.521,220.828,85.126C215.974,76.536,210.012,66.815,200.146,66.826C190.29,66.837,184.17,76.47,179.546,85.174C175.288,93.189,172.373,102.622,176.97,110.448C181.523,118.199,191.16,120.01,200.146,120.244" fill="rgba(66, 194, 255, 0.32)" class="triangle-float2"></path><path d="M140.594,192.66C150.147,192.742,156.244,183.687,161.036,175.423C165.849,167.121,170.247,157.565,165.903,149.009C161.237,139.818,150.871,134.355,140.594,135.158C131.361,135.88,125.445,144.202,121.323,152.495C117.731,159.722,117.264,167.8,120.755,175.076C124.852,183.615,131.123,192.578,140.594,192.66" fill="rgba(66, 194, 255, 0.32)" class="triangle-float1"></path></g><defs><mask id="SvgjsMask1090"><rect width="500" height="250" fill="#ffffff"></rect></mask><style>
            @keyframes float1 {
                0%{transform: translate(0, 0)}
                50%{transform: translate(-10px, 0)}
                100%{transform: translate(0, 0)}
            }

            .triangle-float1 {
                animation: float1 5s infinite;
            }

            @keyframes float2 {
                0%{transform: translate(0, 0)}
                50%{transform: translate(-5px, -5px)}
                100%{transform: translate(0, 0)}
            }

            .triangle-float2 {
                animation: float2 4s infinite;
            }

            @keyframes float3 {
                0%{transform: translate(0, 0)}
                50%{transform: translate(0, -10px)}
                100%{transform: translate(0, 0)}
            }

            .triangle-float3 {
                animation: float3 6s infinite;
            }
        </style></defs></svg>