<svg xmlns="http://www.w3.org/2000/svg" version="1.1" xmlns:xlink="http://www.w3.org/1999/xlink" xmlns:svgjs="http://svgjs.com/svgjs" width="1000" height="250" preserveAspectRatio="none" viewBox="0 0 1000 250"><g mask="url(&quot;#SvgjsMask1092&quot;)" fill="none"><rect width="1000" height="250" x="0" y="0" fill="rgba(255, 255, 255, 1)"></rect><path d="M845.4278726105524 242.60588531939447L874.3005488506824 272.5044168063098 904.1990803375977 243.6317405661798 875.3264040974677 213.73320907926447z" fill="rgba(106, 63, 199, 0.9)" class="triangle-float3"></path><path d="M353.5973213321932 198.43571058434634L304.3641813265257 143.7567691497142 249.6852398918935 192.98990915538172 298.91837989756107 247.66885059001388z" fill="rgba(106, 63, 199, 0.9)" class="triangle-float2"></path><path d="M674.48 222.81 a67.94 67.94 0 1 0 135.88 0 a67.94 67.94 0 1 0 -135.88 0z" fill="rgba(106, 63, 199, 0.9)" class="triangle-float1"></path><path d="M725.9784675139551 62.30281433441692L674.1311684018024 93.45581457385214 705.2841686412376 145.3031136860049 757.1314677533903 114.1501134465697z" fill="rgba(106, 63, 199, 0.9)" class="triangle-float2"></path><path d="M124.04897042519175 185.46521159954648L50.47639701383791 191.90197771946876 56.91316313376019 265.4745511308226 130.48573654511404 259.03778501090034z" fill="rgba(106, 63, 199, 0.9)" class="triangle-float2"></path><path d="M136.29290274233728 100.49562993521462L103.16768352379856 47.48419783773293 50.15625142631687 80.60941705627164 83.28147064485557 133.62084915375334z" fill="rgba(106, 63, 199, 0.9)" class="triangle-float3"></path><path d="M302.96371775133105 260.24537998434516L356.59501457209115 239.65825398254609 336.0078885702921 186.026957161786 282.376591749532 206.61408316358506z" fill="rgba(106, 63, 199, 0.9)" class="triangle-float1"></path></g><defs><mask id="SvgjsMask1092"><rect width="1000" height="250" fill="#ffffff"></rect></mask><style>
            @keyframes float1 {
                0%{transform: translate(0, 0)}
                50%{transform: translate(-10px, 0)}
                100%{transform: translate(0, 0)}
            }

            .triangle-float1 {
                animation: float1 5s infinite;
            }

            @keyframes float2 {
                0%{transform: translate(0, 0)}
                50%{transform: translate(-5px, -5px)}
                100%{transform: translate(0, 0)}
            }

            .triangle-float2 {
                animation: float2 4s infinite;
            }

            @keyframes float3 {
                0%{transform: translate(0, 0)}
                50%{transform: translate(0, -10px)}
                100%{transform: translate(0, 0)}
            }

            .triangle-float3 {
                animation: float3 6s infinite;
            }
        </style></defs></svg>