<svg id="Layer_1" data-name="Layer 1" xmlns="http://www.w3.org/2000/svg" xmlns:xlink="http://www.w3.org/1999/xlink" viewBox="0 0 276.92 261.29"><defs><style>.cls-1{fill:none;}.cls-2{fill:#f2e9f3;}.cls-12,.cls-3{fill:#3cbbec;}.cls-13,.cls-14,.cls-15,.cls-3,.cls-4,.cls-6,.cls-7{fill-rule:evenodd;}.cls-4{fill:#fff;}.cls-13,.cls-5{fill:#28a5de;}.cls-6{fill:#302e7d;}.cls-10,.cls-7{fill:#d7b6d7;}.cls-14,.cls-8{fill:#302d7a;}.cls-9{fill:#c79ac7;}.cls-11{clip-path:url(#clip-path);}.cls-15{fill:#d8b6d7;}</style><clipPath id="clip-path" transform="translate(-159.18 -290.3)"><path class="cls-1" d="M265.79,404.1c3.28,23,6,38.17,22.47,37.68s37.48-19.46,37.25-39.45-13.79-35.8-30.29-35.31-29.67,17.09-29.43,37.08"/></clipPath></defs><circle class="cls-2" cx="298.48" cy="420.94" r="130.65" transform="translate(-369.41 44.05) rotate(-45)"/><path class="cls-3" d="M238.76,402.6a14.2,14.2,0,0,0-14.2-14.19H188.92a14.2,14.2,0,0,0-14.19,14.19v15a14.2,14.2,0,0,0,14.19,14.19h12l8.45,12.51s2.16,3.21,4.31,2.87c2.48-.38,2.09-4.59,2.09-4.59l.54-10.79h8.29a14.2,14.2,0,0,0,14.2-14.19Z" transform="translate(-159.18 -290.3)"/><path class="cls-4" d="M186.15,403h.17l.08,0,.08,0,.07,0,.07,0,.08,0,.06.05.07.05.06.05.06.06.05.07.05.06,0,.07,0,.07,0,.08,0,.08,0,.08,0,.08v.16l.09,1.78.09,1.78,0,.9.05.89,0,.89,0,.9,0,.89,0,.89,0,.9,0,.89,0,.9,0,.89v.89l0,.45v.69l0,.08,0,.08,0,.08,0,.08,0,.07,0,.07-.05.07,0,.06-.06.06-.06.06-.06,0-.07,0-.07.05-.08,0-.07,0-.08,0-.08,0-.08,0h-.41l-.08,0-.08,0-.08,0-.07,0-.08,0-.07,0-.06-.05-.07-.06-.06-.05-.05-.06,0-.07-.05-.07,0-.07,0-.07,0-.07,0-.08,0-.08,0-.08V418l0-.44v-.45l0-.44,0-.89,0-.89,0-.89,0-.88,0-.89,0-.89,0-.89,0-.89-.05-.9,0-.89-.09-1.78-.09-1.78V404l0-.08,0-.08,0-.08,0-.08,0-.07,0-.07.05-.07,0-.07.05-.06.06-.05.07-.06.06-.05.07,0,.08,0,.07,0,.08,0,.08,0h.08l.08,0h.24Z" transform="translate(-159.18 -290.3)"/><path class="cls-4" d="M195.13,402.24h.08l.09,0,.08,0,.08,0,.07,0,.08,0,.07.05.07.05.07,0,.06.06.06.06.05.06,0,.07,0,.07,0,.08,0,.08,0,.08,0,.08,0,.08v4.8l0,.46,0,.46,0,.46,0,.47,0,.93,0,.93,0,.47,0,.47,0,.47,0,.47,0,.47v4.35l0,.09v.08l0,.08,0,.08,0,.08,0,.07-.05.07-.05.07,0,.06-.06.06-.06.06-.07.05-.07.05-.08,0-.07,0-.08,0-.08,0-.08,0H195l-.09,0-.08,0-.07,0-.08,0-.07,0-.07-.05-.07-.05-.06-.06-.06-.06,0-.07-.05-.07,0-.07,0-.07,0-.08,0-.08,0-.08v-4.89l0-.46,0-.46,0-.46,0-.47,0-.93,0-.93,0-.47,0-.47v-.47l0-.47v-4.91l0-.09,0-.08,0-.07,0-.08,0-.08,0-.07.05-.06,0-.07.06-.06.07-.05.06-.05.07,0,.08,0,.07,0,.08,0,.08,0,.08,0h.34Z" transform="translate(-159.18 -290.3)"/><path class="cls-4" d="M194.92,409.87h.2l.06,0,.06,0,.06,0,.06,0,.06,0,.05,0,.06,0,.05,0,0,0,.05,0,0,.05,0,0,0,.05,0,.05,0,.06,0,.05,0,.06,0,.06,0,.06,0,.06,0,.06v.06l0,.06v.45l0,.06,0,.06,0,.06,0,.06,0,.06,0,.06,0,.05,0,.05,0,.05,0,.05,0,0,0,.05-.05,0,0,0-.06,0-.05,0-.06,0-.06,0-.06,0-.06,0h-.06l-.07,0H195l-.27,0h-.28l-.27,0h-.28l-.55,0-.55,0-.54,0-.55,0-.27,0h-.27l-.27,0h-.27l-.27,0-.27,0-.27,0-.26,0-.27,0-.26,0h-.13l-.13,0h-.13l-.13,0-.13,0h-.12l-.13,0-.13,0-.12,0-.13,0-.13,0-.12,0-.13,0-.12,0-.12,0-.13,0-.12,0-.12,0-.12,0-.13,0h-.57l-.06,0-.06,0-.06,0-.06,0-.06,0-.05,0-.06,0,0,0-.05,0,0,0-.05-.05,0-.05,0,0,0-.05,0-.06,0-.05,0-.06,0-.06,0-.06,0-.06,0-.07v-.44l0-.07v-.06l0-.06,0-.06,0-.06,0-.06,0-.05,0-.06,0,0,0-.05,0-.05,0,0,0,0,.06,0,.05,0,.05,0,.06,0,0,0,.06,0,.06,0,.06,0,.07,0,.13,0,.14,0,.14,0,.14,0,.14,0,.14,0,.14,0,.14,0,.14,0,.15,0,.14,0,.14,0,.14,0,.14,0,.14,0h.14l.15,0,.14,0,.14,0h.14l.28,0,.29,0,.28,0,.28,0,.29,0,.28,0h.28l.28,0,.28,0h.28l.56,0,.55,0,.54,0,.54,0H194l.27,0h.26l.27,0h.12Z" transform="translate(-159.18 -290.3)"/><path class="cls-4" d="M207,401.69h.14l.06,0,.07,0,.06,0,.06,0,.06,0,.06,0,.06,0,.05,0,0,0,.05.05.05,0,0,0,0,.05,0,.06,0,.05,0,.06,0,.06,0,.06,0,.06,0,.06,0,.07v.59l0,.07,0,.06,0,.06,0,.06,0,.06,0,.05,0,.06,0,.05-.05.05,0,0-.05.05-.06,0,0,0-.06,0-.06,0-.06,0-.06,0-.06,0-.06,0h-.13l-.15,0-.16,0-.16,0-.15,0h-.16l-.15,0h-.31l-.16,0H200.1l-.13,0h-.28l-.13,0h-.13l-.14,0-.13,0-.13,0-.13,0-.14,0-.13,0-.13,0-.13,0-.12,0-.13,0-.13,0-.14,0-.06,0h-.53l-.06,0-.06,0-.07,0-.06,0-.06,0,0,0-.06,0-.05-.05,0,0-.05,0,0-.05-.05-.05,0-.06,0-.05,0-.06,0-.06,0-.06,0-.06,0-.07,0-.06v-.53l0-.06,0-.07,0-.06,0-.06,0-.06,0-.06,0-.05,0-.06,0-.05.05,0,0,0,.05-.05.05,0,0,0,.06,0,.06,0,.06,0,.06,0,.06,0,.06,0,.16,0,.15,0,.16,0,.16,0,.16,0,.15,0,.16,0,.16,0,.15,0,.16,0,.16,0,.15,0,.16,0,.16,0h.15l.16,0h.3l.16,0h5.69l.13,0h.14l.13,0,.14,0h.13l.14,0H207Z" transform="translate(-159.18 -290.3)"/><path class="cls-4" d="M202.25,402.54h.16l.08,0,.08,0,.08,0,.07,0,.07.05.07,0,.07.05.06.06.06.06,0,.06.05.07,0,.06,0,.08,0,.07,0,.08,0,.08,0,.08v.16l0,.45,0,.46,0,.45,0,.45v.45l0,.46,0,.45,0,.45v.9l0,.45v.46l0,.9,0,.9,0,.9,0,.89,0,.9,0,.9,0,.89v.45l0,.45v.89l0,.44,0,.45v.25l0,.08,0,.08,0,.08,0,.07,0,.08,0,.07-.05.06-.05.07,0,.06-.06.05-.07.06-.06,0-.07.05-.08,0-.07,0-.08,0-.08,0-.08,0h-.41l-.08,0-.08,0-.08,0-.07,0-.08,0-.07,0-.07-.05-.06-.05-.06-.06-.06-.06-.05-.06,0-.07,0-.07,0-.07,0-.08,0-.07,0-.08,0-.08v-.62l0-.45v-.45l0-.45v-.91l0-.9,0-.9,0-.9,0-.89,0-.9,0-.9,0-.89,0-.45v-.89l0-.45v-.44l0-.45,0-.44,0-.45,0-.44,0-.45,0-.44,0-.45v-.25l0-.08,0-.08,0-.08,0-.07,0-.08,0-.07.05-.07,0-.06.05-.06.06-.06.06-.05.07-.05.07-.05.07,0,.08,0,.07,0,.08,0h.08l.08,0h.25Z" transform="translate(-159.18 -290.3)"/><path class="cls-4" d="M218.88,400.5h.18l.09,0,.08,0h0l.06,0,.07,0,.06,0h0l.07,0,.07,0h0l.05,0,0,0h0l.05,0,0,0,0,0,0,0,0,0,0,.05,0,.08,0,.06,0,.06,0,.05,0,.06.05.1,0,.09,0,.1,0,.09,0,.09.06.16,0,.12,0,.07,0,.12,0,.12,0,.11,0,.12,0,.12,0,.11,0,.12,0,.12,0,.11,0,.12,0,.11,0,.12v.11l0,.12v.11l0,.12v10.54l0,.42v.41l0,.41,0,.41,0,.42v.61l0,.21v.41l0,.2,0,.21v.2l0,.21,0,.2,0,.21v.36l0,.08,0,.09,0,.08-.05.08,0,.08-.05.07-.06.07-.06.07-.07.06-.07,0-.08.05-.08.05-.08,0-.08,0-.09,0-.09,0h-.36l-.09,0-.08,0-.09,0-.08,0-.08,0-.08-.05-.08-.05-.06-.06-.07-.06L219,420l-.06-.07-.05-.08,0-.07,0-.09,0-.08,0-.09,0-.09v-.09l0-.21,0-.21,0-.21,0-.22,0-.21v-.21l0-.22v-.21l0-.21v-.64l0-.43,0-.42,0-.43,0-.43v-9.49l0,.09-.11.31-.24.62-.12.32-.12.31-.12.32-.06.16-.07.16-.06.16-.06.16-.07.16-.07.16-.06.16-.07.16-.07.16-.08.15-.08.2-.06.12-.06.13-.07.13,0,.08,0,.07,0,.08,0,.07,0,.08,0,.08,0,.08-.05.08,0,.08-.06.08-.06.08-.06.08-.06.08-.07.08-.08.08,0,0,0,0,0,0,0,0-.05,0-.05,0,0,0-.05,0-.06,0-.06,0-.06,0-.07,0-.06,0,0,0-.09,0-.08,0-.09,0h-.35l-.09,0-.08,0-.09,0-.08,0-.08,0-.08,0h0l-.07-.05-.07-.06-.06-.06-.06-.06,0,0-.06-.07-.05-.09-.07-.1-.07-.12-.19-.3-.2-.34-.4-.65-.13-.22,0-.07,0,0-.08-.12-.09-.14-.08-.14-.08-.13-.08-.14-.08-.13-.07-.13-.08-.14-.14-.26-.14-.25-.14-.25-.07-.12-.07-.12-.07-.12-.07-.11-.07-.11-.06-.11-.07-.11-.08-.11,0,0,0,0,0-.06,0,0,0-.05,0-.05,0,0,0,0,0-.05,0,0,0-.05,0,0,0,0v.33l0,.35v.33l0,.31v.61l0,.32v2.65l0,.45v.45l0,.44,0,.44v6.17l0,.09,0,.09,0,.09,0,.08,0,.08,0,.08-.06.07-.05.07-.07.06-.07.06-.07.06-.07,0-.08,0-.09,0-.08,0-.09,0-.09,0h-.44l-.09,0-.09,0-.08,0-.08,0-.08-.05-.07-.05-.07-.06-.06-.06-.06-.07-.06-.07-.05-.08,0-.08,0-.08,0-.09,0-.08,0-.09v-6.29l0-.45v-.45l0-.44,0-.44v-2.47l0-.3v-.61l0-.31v-.28l0-.35v-1.64l0-.12v-.18l0-.07v-.12l0-.06V404l0-.06,0-.06,0-.07,0-.06,0-.07,0-.06,0-.07,0-.09,0-.05,0-.06.05-.06h0l0-.06,0-.05v0l.05-.05.05-.05h0l.05,0,.06,0h0l.06,0,.06,0h0l.06,0,.05,0h0l.05,0,.06,0,.06,0,.11,0H210l.06,0h.06l.06,0h.05l.06,0,0,0,.1,0,.09,0,.09,0,.09,0,.08,0,.09,0,.08,0,.07,0,.08,0,.07.05.07,0,.06,0,.07,0,.11.07.1.07.09.07.06,0,.05,0,.07.07.07.06.07.07.06.06.06.07.07.06.06.07.06.06.05.07.06.06.06.07,0,.07.06.06.05.07,0,.07.05.07.05.07,0,.06.05.07,0,.07.09.14.09.13.08.14.09.14.08.13.08.14.07.13.08.14.15.26.14.25.14.26.07.12.07.12.07.12.06.11.07.12.07.11.07.11.08.12,0,.05.05.09.14.22,0-.1.07-.14.06-.15.06-.14.06-.15.06-.15.06-.15.06-.15.06-.15.06-.15.12-.3.12-.31.11-.31.24-.62.11-.31.12-.32.12-.32.13-.31.06-.16.07-.16.06-.16.06-.15v0l0-.09.09-.25.06-.15.06-.17.07-.18,0-.1,0-.09,0-.09,0-.1,0-.09,0-.1,0-.1,0-.09.05-.09.06-.1.05-.09,0-.05,0,0,0-.05,0-.05,0-.05,0-.06,0,0,.06-.06.06-.06.07-.06.09-.06.1-.06.06,0,.05,0,.06,0h0l.07,0,.08,0h.09l.08,0h.17Z" transform="translate(-159.18 -290.3)"/><path class="cls-4" d="M224.19,400.68h.09l.09,0,.09,0,.09,0,.08,0,.08.05.08,0,.07.06.07.06.06.07.06.07,0,.08.05.08,0,.08,0,.09,0,.08,0,.09v.28l0,.42,0,.41,0,.41,0,.42V404l0,.42v.42l0,.42v7.16l0,.21v.21l0,.21v.2l0,.21v.2l0,.21,0,.2,0,.21,0,.2,0,.2,0,.21,0,.2,0,.21v3.09h0l0,0h1.05l.12,0,.29,0,.3,0,.3,0,.3,0,.3,0,.3,0,.15,0h.15l.15,0,.15,0,.14,0,.15,0,.14,0,.15,0,.14,0,.14,0,.14,0,.14,0,.14,0,.14,0,.13,0,.13,0,.13,0,.13,0,.13,0,.13,0,.09,0,.09,0h.37l.09,0,.09,0,.09,0,.08,0,.08.05.08.05.07.06.07.06.06.07.06.07,0,.08,0,.08,0,.08,0,.09,0,.08,0,.1v.36l0,.09,0,.09,0,.09,0,.09,0,.08-.05.08-.06.07-.06.07-.06.07-.07.06-.08,0-.08.05-.08,0-.08,0-.09,0-.15,0-.16,0-.16.05-.16,0-.16,0-.16,0-.16,0-.16,0-.16,0-.16,0-.16,0-.17,0-.16,0-.16,0-.16,0-.16,0-.16,0-.16,0-.16,0-.16,0-.31,0-.31,0-.31,0-.3,0-.29,0-.3,0-.14,0h-1.36l-.1,0-.1,0-.11,0-.1,0-.11,0-.11,0-.1,0-.06,0,0,0-.06,0-.05,0-.06,0,0,0-.06,0-.05,0,0,0-.06,0-.05,0-.05,0-.06,0-.05,0-.05,0-.06,0,0,0,0,0-.05-.05,0,0,0-.05,0-.05,0,0,0-.06-.06-.08-.05-.1-.05-.09,0-.09,0-.09,0-.08,0-.09,0-.09,0-.08,0-.09,0-.08,0-.09v-.08l0-.08v-3.06l0-.2,0-.21,0-.22,0-.21,0-.21,0-.22,0-.21,0-.21,0-.22,0-.21v-.22l0-.22v-.43l0-.21v-7.6l0-.42v-.43l0-.43,0-.42,0-.42,0-.42,0-.42v-.18l0-.09,0-.09,0-.09,0-.08.05-.08,0-.07.06-.07.07-.07.07-.06.07-.06.08,0,.08,0,.09,0,.08,0,.09,0h.37Z" transform="translate(-159.18 -290.3)"/><path class="cls-3" d="M258.05,318.2c0-7.84-3.4-14.2-11.23-14.2H211.18c-7.84,0-11.14,6.36-11.14,14.2v15c0,7.83,3.3,14.19,11.14,14.19h11.95l8.46,12.51s2.15,3.21,4.3,2.87c2.49-.38,2.09-4.59,2.09-4.59l.55-10.79h8.29c7.83,0,11.23-6.36,11.23-14.19Z" transform="translate(-159.18 -290.3)"/><path class="cls-4" d="M221.59,318.42h.19l.07,0,.06,0,.06,0,.06,0,.06,0,.06,0,0,0,.05,0,.05,0,0,.05.05,0,0,0,0,.05,0,.06,0,.05,0,.06,0,.06,0,.06,0,.06v.06l0,.07v.51l0,.07,0,.06,0,.06,0,.06,0,.06,0,.06,0,.05,0,.05,0,.06,0,0-.05.05,0,0-.05,0-.16.13-.16.12-.17.12-.17.12-.16.12-.17.11-.16.12-.17.11-.17.12-.16.11-.17.11-.17.11-.33.22-.34.21-.33.21-.33.22-.33.2-.33.21-.33.21-.32.21-.16.11-.16.1-.16.11-.16.11-.07,0-.07,0-.06.05-.07,0-.07,0-.07,0-.14.07-.14.07-.14.07-.27.14-.13.07-.13.06-.13.07-.05,0-.06,0h0l0,0h0l.09.05.09,0,.09,0,.08,0,.08,0,.08,0,.09,0,.08,0,.09,0,.18.06.18.07.19.06.37.13.15.05.14.05.15.05.14,0,.15.05.14,0,.15,0,.15,0,.15.05.15,0,.3.08.63.17.12,0,.12,0,.24.07.24.07.23.07.24.08.23.07.45.14.22.07.23.06.22.06.1,0,.11,0,.11,0,.11,0,.11,0,.1,0,.11,0,.11,0,.1,0,.11,0,.07,0,.06,0,.06,0,.06,0,.06,0,.06,0,.05,0,.06,0,0,.05.05,0,0,0,.05.05,0,.05,0,.06,0,.05,0,.06,0,0,0,.06,0,.07,0,.06v.06l0,.06v.46l0,.06v.07l0,.06,0,.06,0,.06,0,.05,0,.06,0,0,0,.05-.05.05,0,.05-.05,0-.05.05,0,0-.06,0-.05,0-.06,0-.06,0-.06,0-.07,0-.06,0h-.45l-.07,0-.12,0-.13,0-.13,0-.12,0-.13,0-.12,0-.13,0-.12,0-.12,0-.12,0-.24-.07-.24-.07-.24-.07-.46-.15L220,329l-.22-.07-.22-.06-.22-.07-.22-.06-.11,0-.11,0-.62-.17-.32-.08-.16-.05-.16,0-.16,0-.16-.05-.16,0-.16-.05-.16,0-.17-.06-.16-.05-.16-.05-.38-.14-.19-.06-.2-.07-.2-.07-.1,0-.1,0-.11,0-.1,0-.1,0-.11,0-.12-.05-.13-.06-.12-.05-.07,0-.06,0-.06,0-.07,0-.06,0-.07,0-.06,0-.07,0-.06,0-.07,0-.06,0-.05,0-.06,0,0,0-.06-.05-.05,0-.06,0,0,0-.05-.05-.05,0,0-.05-.05,0,0-.05,0-.06-.05-.05,0-.06,0-.06,0-.06,0-.06,0-.07,0-.06,0-.07,0-.07,0-.08,0-.07,0-.08,0-.08v-.63l0-.07v-.08l0-.07,0-.07,0-.07,0-.06,0-.06,0-.06,0-.06,0-.06,0,0,0-.05,0-.05,0-.05,0,0,0,0,0-.05.07-.07.08-.08.07-.07.08-.06.08-.07.07-.06.08,0,.08-.06.07-.05.08-.05L214,323,214,323l.07,0,.08,0,.08,0,.08-.05.15-.08.15-.08.14-.07.28-.14.12-.06.12-.06.11-.06,0,0,.05,0,0,0,0,0,0,0,0,0,.16-.11.17-.11.17-.11.16-.11.34-.22.33-.21.33-.21.33-.21.33-.21.33-.21.32-.21.33-.21.16-.1.16-.11.15-.11.16-.1.16-.11.15-.11.16-.1.15-.11.15-.11.15-.11.15-.12.15-.11.06,0,.05,0,.06,0,.06,0,.06,0,.06,0,.06,0,.06,0h.33Z" transform="translate(-159.18 -290.3)"/><path class="cls-4" d="M235.57,315.48h.09l.1,0,.09,0,.09,0,.08,0,.08.05.08.05.07.06.07.07.06.07.06.08.05.08,0,.08,0,.09,0,.09,0,.09,0,.09v.38l0,.09,0,.09,0,.09-.16.37-.17.37-.17.37-.18.37-.17.37-.17.36-.18.37-.18.36-.18.36-.18.36-.18.36-.18.36-.18.36-.19.36-.36.71-.37.71-.37.71-.36.71-.37.71-.18.36-.18.35-.18.35-.18.36-.17.35-.18.36-.17.36-.17.35-.12.24-.11.24-.11.24-.11.24-.1.24-.11.24-.11.25-.1.24-.1.25-.11.25-.21.5-.2.5-.21.51-.11.25-.11.26-.11.25-.11.26-.11.25-.12.26-.11.25-.12.26-.12.25L228,335l-.06.13-.06.13-.07.12-.06.13-.07.13-.06.13-.07.12-.07.13-.07.12-.07.13-.07.13-.07.12-.07.12-.06.08-.05.08-.07.07-.06.07-.08.06-.08.05-.08.05-.08,0-.09,0-.09,0-.09,0-.1,0H226l-.09,0-.1,0-.09,0-.08,0-.09,0-.08-.05-.07-.06-.07-.06-.07-.07-.06-.07,0-.08-.05-.09,0-.08,0-.09,0-.09,0-.09,0-.1v-.37l0-.09,0-.09,0-.09,0-.08.07-.12.06-.11.07-.11.06-.11.06-.12.06-.11.06-.11.06-.12.06-.11.06-.12.06-.11.06-.12.06-.12.05-.11.11-.24.12-.24.11-.24.1-.24.11-.24.11-.24.1-.25.1-.24.11-.25.21-.5.2-.5.21-.51.11-.25.11-.25.1-.26.11-.25.11-.26.12-.26.11-.25.12-.26.12-.25.12-.26.18-.36.18-.37.18-.36.18-.36.18-.36.18-.36.18-.36.19-.36.36-.71.37-.71.37-.71.36-.71.37-.71.18-.36.18-.35.18-.35.17-.36.18-.35L233,319l.17-.35.17-.36.17-.35.17-.36.17-.36.16-.35.17-.36.16-.37,0-.08.05-.08.06-.08.06-.07.06-.07.07-.06.08-.06.08-.05.08,0,.09,0,.09,0,.09,0,.1,0h.28Z" transform="translate(-159.18 -290.3)"/><path class="cls-4" d="M239.68,319.44h.14l.08,0H240l.07,0,.07,0,.06,0,.07,0,.06,0,.06,0,.06.05.05.05.05.05.07.08.07.08.07.07.07.07.07.08.07.07.07.07.07.07.08.07.08.07.07.07.08.08.08.07.08.07.09.07.08.07.09.07.08.06.09.07.09.07.08.07.09.07.09.07.09.07.19.13.19.14.19.13.19.14.19.13.2.14.39.27.4.27.2.14.2.14.2.14.2.14.2.14.2.15.2.14.1.08.1.07.09.07.1.08.1.08.07.05h0l0,0,0,0,0,0,.1.05.25.14.14.08.15.08.08,0,.07.05.08.05.08.05.08.05.08,0,.08.06.08.06.08.06.08.07,0,0,.05,0,0,0,0,.05.05.05,0,.06.05.06,0,.07.05.07,0,.09,0,.1,0,.09,0,.08,0,.06V327l0,.1,0,.1,0,.09,0,.1,0,.08-.05.09,0,.08,0,.08-.05.07-.05.08,0,.06-.06.07-.05.07,0,.06-.06.06-.05.06-.06.06-.06.05-.06.06,0,.05-.06.05-.06.06-.06.05-.06,0-.06.05-.06.05,0,0-.06.05-.12.09-.12.08-.11.08-.12.07-.11.08-.1.06-.11.07-.1.06-.09,0-.09.06-.16.09-.13.07-.13.07-.13.07-.13.07-.14.07-.13.06-.13.07-.13.06-.14.07-.13.06-.13.06-.13.06-.14.06-.13.06-.13.06-.14.06-.13.06-.27.11L243,331l-.27.11-.26.1-.27.11-.26.1-.53.2-.52.21-.26.1-.25.1-.26.1-.25.1-.25.11-.26.1-.24.11-.13,0-.12.06-.12.05-.12.06-.12.05-.12.06-.12.06-.12.06L238,333l-.12.06-.11.06-.12.07-.12.06-.12.06-.06,0-.07,0-.07,0-.07,0-.07,0h-.45l-.07,0-.07,0-.07,0-.07,0-.07,0-.06,0-.06,0-.06,0-.06,0,0-.06-.05-.05,0-.06,0-.06,0-.06,0-.07,0-.06,0-.07,0-.07,0-.08V332l0-.07,0-.08,0-.06,0-.07,0-.07,0-.06,0-.06.05-.06,0-.06.05-.05.06,0,.06,0,.06,0,.06,0,.13-.07.13-.07.13-.07.14-.07.13-.06.13-.07.14-.07.13-.06.13-.06.14-.06.13-.07.13-.06.14-.05.13-.06.27-.12.27-.11.26-.11.27-.11.27-.11.26-.1.27-.1.52-.21.52-.2.26-.1.26-.1.25-.1.25-.11.25-.1.25-.11.13-.05.12-.05.12-.05.12-.06.13-.05.12-.06.12-.05.12-.06.11-.06.12-.06.12-.05.12-.06.11-.06.12-.06.11-.06.12-.07.11-.06.13-.08.08,0,.07,0,.09-.05.08-.05.08-.06.09-.05.08-.06.09-.06.08-.06.09-.06,0,0,0,0,0,0,0,0,0,0,0,0h0l-.13-.07-.25-.14-.12-.07-.06,0-.06,0-.06,0-.07,0-.07,0-.06,0-.1-.08-.09-.07-.08-.07-.09-.06-.08-.07-.09-.06-.18-.14-.18-.13-.19-.13-.19-.13-.19-.14-.2-.13-.19-.13-.4-.28-.4-.27-.2-.14-.21-.14-.2-.15-.2-.14-.21-.15-.2-.15-.1-.08-.1-.07-.1-.08-.1-.08-.1-.07-.1-.08-.1-.08-.1-.09-.1-.08-.09-.08-.1-.08-.1-.09-.09-.08-.1-.09-.09-.09-.09-.08-.1-.09-.09-.09-.09-.1-.09-.09-.09-.09-.09-.1-.08-.09-.08-.1-.05-.05,0-.06,0-.07,0-.06,0-.07,0-.07,0-.07,0-.07,0-.07v-.45l0-.07,0-.07,0-.07,0-.07,0-.06,0-.07,0-.06.05-.06.05-.05,0-.05.06,0,.06-.05.06,0,.06,0,.07,0,.07,0,.07,0,.07,0,.07,0h.3Z" transform="translate(-159.18 -290.3)"/><path class="cls-3" d="M325.83,333.28c0-7.83,3.39-14.19,11.23-14.19H372.7c7.83,0,11.14,6.36,11.14,14.19v15c0,7.83-3.31,14.19-11.14,14.19h-12L352.29,375s-2.16,3.21-4.31,2.88c-2.48-.38-2.09-4.59-2.09-4.59l-.54-10.79h-8.29c-7.84,0-11.23-6.36-11.23-14.19Z" transform="translate(-159.18 -290.3)"/><path class="cls-4" d="M344,331h.45l.08,0,.08,0,.07,0,.08,0,.08,0,.07,0,.08,0,.07,0,.08,0,.07,0,.07,0,.08,0,.07.05.06.05.07,0,.07.06.07.05.06.05.06.06.06.06.06.06.06.07.05.06.06.07.05.07.05.07,0,.07.05.07.05.09.06.1.05.1.05.09,0,.1,0,.1.05.09,0,.1,0,.1,0,.1,0,.1,0,.1,0,.1,0,.09,0,.1,0,.1,0,.1,0,.1v.1l0,.1v.1l0,.1v1.9l0,.18,0,.18,0,.18,0,.17,0,.17,0,.17,0,.17,0,.16,0,.16-.05.31,0,.09,0,.08,0,.09,0,.08,0,.08,0,.07-.05.08-.06.06-.07.07-.07.05-.07.05-.08.05-.08,0-.09,0-.08,0-.09,0-.09,0h-.36l-.09,0-.08,0-.09,0-.08,0-.08-.05-.07-.05-.07,0-.07-.06-.06-.07-.06-.07-.05-.07-.05-.08,0-.08,0-.08,0-.09,0-.09,0-.09v-.36l.05-.3,0-.15,0-.15,0-.15,0-.15,0-.15,0-.15,0-.15,0-.15v-1.77l0-.06v-.12l0-.05v-.06l0,0,0-.06v-.05l0-.05,0-.05,0-.05,0,0,0-.05,0-.05,0-.05,0,0,0-.05,0,0v0l0,0v0h0v0h-.72l0,0h-.07l0,0h0l0,0-.07,0-.07,0-.07,0-.07,0-.07.05-.08,0-.07.05-.07.05-.08.05-.07,0-.07.05-.07.05-.08.06-.06.06-.07.05-.07.06-.07.06-.06.06-.07,0-.06.06-.06.06-.06.06-.06.05,0,.06-.05.06-.05.05-.05.05,0,0,0,.05,0,.05,0,0,0,0,0,0,0,0,0,.06-.05.07,0,.07,0,.06,0,.07,0,.07,0,.07,0,.07,0,.07,0,.07,0,.07,0,.07,0,.07,0,.07,0,.07,0,.07,0,.08,0,.07,0,.07,0,.08,0,.07,0,.08,0,.07,0,.08,0,.07,0,.08,0,.08,0,.07,0,.08,0,.08,0,.08,0,.07,0,.08,0,.08,0,.08,0,.08,0,.08,0,.08,0,.08,0,.08,0,.08,0,.08,0,.09,0,.08,0,.08,0,.08,0,.09v.08l0,.08v.08l0,.17,0,.17,0,.17,0,.17,0,.17,0,.17,0,.17v2.61l0,.17v.17l0,.17,0,.18,0,.17,0,.17,0,.17,0,.17,0,.17,0,.16,0,.17,0,.17,0,.16,0,.17,0,.16,0,.16,0,.16,0,.06v.05l0,.05,0,.06V346l0,0v.05l0,.05,0,.05,0,.05,0,0v.05l0,0,0,.05,0,0,0,0,0,.05,0,0,0,0,0,0,0,.05,0,0,0,0,0,0,0,0,0,0,0,0,0,0,0,0,0,0,0,0,0,0,0,0,0,0,0,0,0,0,0,0,0,0,0,0,0,0,0,0,0,0,0,0,0,0,0,0,0,0,0,0,0,0,0,0,0,0,0,0,0,0,0,0,0,0,0,0,0,0,0,0,0,0h0l0,0,0,0h.06l0,0h0l0,0H343l0,0h.08l0,0h.05l0,0,0,0,.05,0,0,0,.05,0,0,0,.05,0,0,0,.05,0,.05,0,0,0,0,0,.05,0,.05,0,.05,0,.05,0,.08-.05.08,0,.08,0,.09,0,.09,0,.08,0h.36l.09,0,.09,0,.08,0,.09,0,.07.05.08,0,.07.05.07.06.06.07.06.07.05.07.05.08,0,.08,0,.08,0,.09,0,.09v.44l0,.09,0,.09,0,.08,0,.09,0,.07-.05.08-.06.07-.06.07-.06.06-.07.06-.08.05-.06,0-.08.05-.07,0-.07,0-.08,0-.07,0-.08.05-.07,0-.08,0-.07,0-.08,0-.07,0-.08,0-.07,0-.08,0-.07,0-.08,0-.08,0-.07,0-.08,0-.07,0-.08,0-.08,0-.07,0-.08,0-.07,0h-.08l-.08,0H341.6l-.07,0h-.08l-.07,0-.07,0-.07,0-.07,0-.07,0-.07,0-.07,0-.07,0-.07,0-.07,0-.06,0-.07,0-.07,0-.06,0-.07,0-.06,0-.07,0-.06,0-.06,0-.06,0-.06,0-.07,0-.05-.05-.06,0-.06,0-.06-.05-.06,0-.05-.05-.06,0-.05,0-.06-.05-.05-.05-.06,0-.05-.06-.05-.05-.05-.05,0-.05-.05-.06-.05-.06,0-.05,0-.06-.05-.06,0-.06-.05-.05,0-.06,0-.06-.05-.07,0-.06,0-.06,0-.06,0-.07,0-.06,0-.07,0-.06,0-.07,0-.07,0-.07,0-.06,0-.07,0-.07,0-.07,0-.07,0-.08,0-.07,0-.07,0-.07,0-.08,0-.07,0-.07,0-.08,0-.08,0-.07,0-.08,0-.08,0-.07,0-.08,0-.08,0-.18,0-.19-.05-.19,0-.18,0-.19,0-.19,0-.19,0-.2,0-.19,0-.19,0-.2,0-.19,0-.2,0-.19,0-.2,0-.2V343l0-.2v-2.61l0-.2,0-.2,0-.2,0-.2,0-.2,0-.2,0-.2,0-.2,0-.1,0-.1,0-.1,0-.1,0-.1,0-.1,0-.09,0-.1,0-.1,0-.1,0-.1,0-.09,0-.1,0-.1,0-.1,0-.09,0-.1,0-.1,0-.09,0-.1,0-.1,0-.09,0-.1,0-.09,0-.1,0-.09,0-.09,0-.1,0-.09,0-.1,0-.09.05-.09,0-.09,0-.09,0-.1,0-.09.05-.09,0-.09.05-.09.05-.09.05-.09.05-.09,0-.09.05-.08.05-.09.06-.09.05-.08.06-.09.05-.09.06-.09.05-.07.06-.08.06-.07.05-.08.07-.07.06-.08.07-.08.07-.08.07-.07.07-.08.08-.08.08-.08.08-.08.08-.08.08-.08.09-.08.09-.08.09-.07.09-.08.1-.08.09-.08.1-.07.1-.08.1-.07.11-.08.1-.07.11-.07.11-.07.11-.07.11-.06.11-.06.12-.07.12-.06.11,0,.06,0,.07,0,.06,0,.06,0,.06,0,.06,0,.07,0,.06,0,.07,0,.06,0,.07,0,.06,0,.07,0,.07,0h.06l.07,0H344Z" transform="translate(-159.18 -290.3)"/><path class="cls-4" d="M354.68,332.61h.63l.09,0h.09l.09,0,.09,0,.09,0,.09,0,.09,0,.08,0,.08,0,.08,0,.07,0,.08.05.07,0,.06.05.06.06.06.07.06.07,0,.07.05.07,0,.08,0,.08,0,.08,0,.09v.43l0,.08,0,.08,0,.08,0,.08,0,.08,0,.07-.05.07-.06.07-.06.06-.06.06-.07,0-.07.05-.08,0-.07,0-.08,0-.09,0-.08,0-.09,0h-.42l-.09,0h-.05l0,0h-1.31l-.05,0h-.11l-.05,0h-.05l-.05,0-.05,0-.06,0h-.05l-.05,0-.05,0-.05,0,0,0-.06,0-.05,0-.05,0-.05,0-.05,0,0,0-.05,0-.05,0-.05,0-.05,0,0,0,0,0-.05,0-.05,0,0,0,0,0-.05,0-.05,0,0,0-.05,0,0,0,0,0-.05,0,0,0,0,0,0,0,0,0,0,0,0,0,0,0,0,0,0,0,0,0,0,0,0,0,0,.05,0,0,0,0,0,0,0,.05,0,0,0,0,0,.05,0,0,0,0,0,.05,0,0,0,.05,0,0,0,0,0,.05,0,0,0,.05,0,0,0,.05v0l0,0v.09l0,.05v1.15l0,0v0l0,.05,0,0,0,.05,0,0,0,0,0,.05,0,.05,0,0,0,.05,0,.05,0,.05,0,.05,0,0,0,.05,0,.05,0,.05,0,.05,0,.06,0,0,.05.05,0,.05.09.11.09.11.09.1.09.11.06.07.07.07.06.07.07.07.07.07.06.07.07.07.07.07.15.14.14.14.15.14.16.15.15.14.17.16.18.18.2.19.1.1.1.1.11.1.1.11.11.11.11.12.11.11.11.12.11.12.11.12.11.13.11.13.11.12.11.14.1.13.11.14.1.13.1.14.06.07.05.07.05.07,0,.08.05.07.05.07.05.07,0,.08.05.07,0,.08.05.07,0,.08,0,.07,0,.08,0,.08,0,.08,0,.08,0,.08,0,.08,0,.08,0,.08,0,.08,0,.08,0,.09,0,.08,0,.09,0,.08,0,.09,0,.09,0,.09,0,.09v.94l0,.1,0,.1,0,.1,0,.1,0,.09,0,.1,0,.1-.05.09,0,.1,0,.09-.05.09-.06.09-.06.09-.06.08-.06.08-.07.09-.07.07-.08.08-.08.08-.08.07-.08.07-.08.06-.09.07-.09.06-.09.06-.1.06-.09.06-.1.05-.1.06-.11.05-.1.05-.11,0-.11.05-.11,0-.12,0-.12.05-.13,0-.13,0-.13,0-.13,0-.13,0-.13,0-.13,0-.12,0-.13,0-.13,0H353l-.13,0h-.71l-.09,0-.08,0-.08,0-.07,0-.08,0-.07-.05-.06-.06-.07-.06-.05-.06-.06-.07-.05-.07,0-.08,0-.07,0-.08,0-.09,0-.08,0-.08v-.43l0-.09,0-.08,0-.08,0-.07,0-.08.05-.07.06-.06.06-.06.06-.06.07-.06.07,0,.07-.05.08,0,.08,0,.08,0,.09,0,.08,0H353l.09,0h.08l.09,0,.08,0,.08,0,.09,0,.08,0,.08,0,.08,0,.07,0,.06,0,.07,0,.06,0,0,0,.06,0,.05,0,0,0,0,0,0,0,0,0,0,0,0,0,0,0,0,0,0,0,0,0,0,0v0h0v0h0v0h0v0h0v0h0v0h0v0h0v-.41l0,0v0l0,0v0l0,0,0-.05,0,0,0-.05,0-.05,0,0,0-.05,0-.05,0-.05,0-.05,0,0,0-.06,0-.05,0-.05,0-.05,0-.06,0-.05,0,0,0-.06,0-.05,0-.05-.08-.11-.08-.11-.09-.11-.09-.11-.09-.11-.09-.11-.09-.11-.09-.1-.1-.11-.1-.1-.09-.11-.1-.1-.1-.1-.09-.1-.1-.1-.09-.09-.1-.1-.09-.09-.18-.17-.17-.17-.17-.15-.15-.15-.16-.15-.15-.15-.16-.15-.16-.16-.08-.08-.09-.08-.08-.08-.08-.08-.08-.09-.08-.08-.08-.09-.07-.09-.11-.12-.11-.12-.11-.13-.1-.13-.06-.07-.06-.07,0-.07-.05-.07-.06-.08-.05-.07-.06-.08-.05-.08,0-.07-.05-.08-.06-.09-.05-.08-.05-.08,0-.09-.05-.09-.05-.09,0-.09,0-.09-.05-.1,0-.09,0-.1,0-.1,0-.1,0-.11,0-.09,0-.1,0-.1,0-.1v-.09l0-.1v-1.34l0-.1,0-.09,0-.09,0-.09,0-.09,0-.09,0-.09,0-.09,0-.08,0-.09,0-.09,0-.08,0-.08,0-.09,0-.08,0-.08,0-.08,0-.08,0-.08,0-.08,0-.08.05-.08.05-.07,0-.08.05-.07.05-.07.06-.08.05-.07.05-.07.06-.07.06-.07.06-.07.05-.06.06-.07.06-.07.07-.06.06-.06.06-.07.07-.06.06-.06.07-.06.07-.06.06-.06.07-.06.07,0,.07-.06.07-.05.07-.05.07-.06.08-.05.07,0,.07-.05.08-.05.07-.05.08,0,.08,0,.07,0,.08-.05.08,0,.08,0,.08,0,.08,0,.08,0,.08,0,.08,0,.08,0,.08,0,.08,0,.09,0,.08,0,.09,0,.08,0,.08,0,.09,0,.08,0,.09,0,.09,0,.08,0,.09,0,.09,0h.09l.08,0h1Z" transform="translate(-159.18 -290.3)"/><path class="cls-4" d="M364,333.71h.51l.09,0h.17l.08,0h.09l.08,0,.09,0,.08,0,.09,0,.08,0,.09,0,.08,0,.08,0,.09,0,.08,0,.08,0,.08,0,.08,0,.09,0,.08,0,.08,0,.07,0,.07,0,.07,0,.07.05.07.06.06.05.05.07.05.06.05.07,0,.08,0,.07,0,.08,0,.08,0,.08v.5l0,.09,0,.08,0,.07,0,.08,0,.07-.05.07-.05.07-.06.06-.06.06-.06.05-.07.05-.07.05-.08,0-.07,0-.08,0-.08,0-.09,0h-.42l-.08,0-.08,0-.08,0-.08,0-.07,0-.05,0,0,0,0,0,0,0,0,0,0,0,0,0,0,0h0l0,0h-.09l0,0h-1.47l0,0H363l-.05,0h0l0,0h0l0,0,0,0h0l0,0-.05,0,0,0,0,0,0,0,0,0,0,0,0,0,0,0,0,0,0,0,0,0,0,0,0,0,0,0,0,0,0,0,0,0,0,0,0,0,0,0,0,0,0,0,0,0,0,0,0,0,0,0,0,0,0,0,0,0,0,0,0,0,0,0,0,0,0,0v0l0,0,0,0,0,0v0l0,0,0,0v.11l0,0v1l0,.05V339l0,0v0l0,.06,0,.05,0,.05,0,.06,0,.05,0,.06,0,0,0,.05,0,.06,0,.06,0,.05.05.06,0,.05.05.06.05.06.05.06.05,0,.06.06,0,.06.06.06.06.05.06.06.12.12.12.12.05,0,.05.05,0,0,.05,0,.05,0,.05,0,.06.05.05,0,.12.09.12.1.12.09.13.09.13.1.13.1.28.2.14.1.14.1.14.11.15.11.14.11.14.11.08.06.07.06.07.06.07.06.08.06.07.06.07.07.07.06.07.07.07.07.07.07.07.07.07.07.07.07.06.07.07.08.06.08.07.08.06.08.07.08.06.08.06.09.06.09.05.08.06.09,0,.1.05.09.05.1.05.08,0,.09,0,.09,0,.08,0,.09,0,.09,0,.08,0,.09,0,.09,0,.09,0,.08,0,.09,0,.09,0,.09,0,.09V347l0,.09v.08l0,.08,0,.09v.08l0,.08,0,.08,0,.08,0,.08,0,.08,0,.07,0,.08,0,.08,0,.07,0,.08,0,.07,0,.08,0,.07,0,.07,0,.07,0,.07-.05.07,0,.07,0,.07-.05.06,0,.07-.05.06,0,.07-.05.06-.05.06-.06.06-.05.07-.05.05-.06.06-.05.06-.06.06-.06.05-.06.06-.06.05-.06.06-.06.05-.06.05-.06,0-.07.05-.06.05-.06,0-.07,0-.07.05-.07,0-.06,0-.07,0-.07.05-.07,0-.07,0-.07,0-.08,0-.07,0-.07,0-.08,0-.07,0-.08,0-.07,0-.08,0-.07,0-.08,0-.08,0-.08,0-.08,0-.08,0-.08,0-.08,0-.08,0-.08,0h-.08l-.08,0h-1.62l-.08,0-.09,0h-.09l-.07,0-.09,0-.07,0-.08,0-.08,0-.07,0-.07-.05-.06-.05-.06-.06-.06-.06-.05-.07,0-.07,0-.07,0-.07,0-.08,0-.08,0-.08,0-.09v-.41l0-.09,0-.08,0-.08,0-.07.05-.07,0-.08.05-.06.06-.07.06-.05.06-.06.07-.05.07-.05.07,0,.08,0,.08,0,.08,0,.08,0,.09,0h.33l.08,0h1.31l0,0h.09l0,0h.08l0,0,0,0,0,0h0l0,0,0,0,0,0,0,0,0,0,0,0,0,0,0,0,0,0,0,0,0,0,0,0,0,0,0,0,0,0,0,0,0,0,0,0,0,0,0,0,0,0,0,0,0,0,0,0,0,0,0,0,0,0,0,0,0,0,0,0,0,0,0,0,0,0,0,0,0,0,0,0,0,0,0,0,0,0,0,0,0,0v0l0,0,0,0V347l0,0v-1.21l0-.05v0l0,0v0l0,0,0-.05,0,0,0,0,0-.05,0,0,0,0,0-.05,0-.05,0,0,0-.05,0-.05,0,0,0,0,0-.05,0,0,0-.05,0,0-.05,0,0-.05-.05-.05,0,0,0-.05-.05-.05-.05,0-.06-.05-.05-.05-.05-.05-.06,0-.06,0,0-.05-.06,0-.12-.1-.13-.09-.12-.1-.13-.1-.14-.09-.13-.1-.27-.2-.14-.1-.14-.1-.15-.11-.14-.11-.14-.1-.14-.12-.07-.05-.07-.06-.07-.06-.07-.06-.07-.06-.07-.06-.07-.06-.06-.07-.14-.13-.14-.13-.07-.07-.07-.07-.07-.07-.07-.08-.07-.07-.07-.08-.07-.08-.08-.08-.07-.08-.07-.08-.07-.08-.07-.09-.06-.09-.07-.09-.07-.1-.06-.09-.07-.1-.06-.1-.06-.1-.06-.11,0-.11-.05-.1,0-.06,0-.06,0-.06,0-.06,0-.05,0-.06,0-.06,0-.06,0-.07,0-.06,0-.06,0-.06,0-.1,0-.1,0-.1v-.1l0-.1v-.09l0-.1v-1l0-.09v-.09l0-.09v-.09l0-.09,0-.09,0-.09,0-.09,0-.08,0-.09,0-.08,0-.09,0-.08,0-.08,0-.08,0-.08,0-.08.05-.08,0-.07,0-.08.05-.07,0-.07.05-.08.05-.07.05-.06.06-.07.05-.07.06-.06,0-.07.06-.06.06-.06.06-.06.06-.06.06-.06.07-.06.06,0,.06-.06.07-.05.07-.05.06-.05.07-.05.07,0,.07-.05.07-.05.07,0,.07,0,.08-.05.07,0,.07,0,.08,0,.07,0,.08,0,.07,0,.08,0,.08,0,.07,0,.08,0,.08,0,.08,0,.08,0,.08,0,.08,0,.08,0,.08,0,.08,0,.08,0,.09,0h.08l.08,0H363l.08,0H364Z" transform="translate(-159.18 -290.3)"/><path class="cls-3" d="M297.43,444s-9.63,3-10.94,15.67c-3.83,37-2.44,54.58-6.6,61.92-.87,1.54-40.44-4.1-40.86-3-1.17,3.07-8.84,15.77-7.41,16.18,4.51,1.29,57.28,15.83,68.55,5.16,10.38-9.81,8.94-29.39,6.59-39.68C303.77,487.14,312.42,444.75,297.43,444Z" transform="translate(-159.18 -290.3)"/><path class="cls-5" d="M371.18,541.94c-10-33.34-39.74-105.71-39.74-105.71l-16.22-2.15c-2-1.57-22.44,14.42-22.44,14.42s-1.72,9.7-3.37,19.37c-1.51,8.85-10.12,18-9.31,22.74,1.89,10.91,15.32,13.53,15.32,13.53,2.37,19.21,4.22,30.69,6.81,40.53" transform="translate(-159.18 -290.3)"/><path class="cls-3" d="M329.57,436.4s-5,11.07-2.53,27.19c1,6.86,9.11,34.71,11,41.42,4.12,14.52-2.69,14.81-17.11,14.9-2,0-17-1.54-17.28-.27-.84,3.54-3.87,20.31,1.68,21.54,6.77,1.5,42.12,5.86,52.34-7.33,9.41-12.14,5.75-33.66,2.2-44.78-4.51-14.13-15-53.63-30.32-52.67" transform="translate(-159.18 -290.3)"/><path class="cls-6" d="M304,519.05c2.05,0,4,4.9,4.42,11s-.95,11.07-3,11.09-4-4.89-4.42-11,.95-11.07,3-11.09" transform="translate(-159.18 -290.3)"/><path class="cls-7" d="M307.7,528.41A60.45,60.45,0,0,1,293,522.64c-2-1.19-1.7,1.22-1.51,1.49,1,1.4,5.32,4.44,4.91,4.63-.86.4-10.52-2.16-13.75-3.44-.32-.13-3.77-1.65-4-1.15-.5,1.17,1.24,2.15,2.06,2.6,2.76,1.51,11.86,4.75,11.38,4.65-.86-.19-8.3-1.44-11.12-2-.19,0-4.17-.9-4.31-.38-.27,1,2.68,2.06,3.38,2.25,2.76.76,10.22,2.93,11.16,3.21a32.58,32.58,0,0,1-3.81-.12c-2.83-.19-5.65-.84-8.48-.94-.56,0-2.44-.25-2.59.67-.1.6,1.29,1.15,1.67,1.29,2.38.87,19.43,3.38,24.4,2.54a13.49,13.49,0,0,1,5,.71s3.71-7.16.26-10.19" transform="translate(-159.18 -290.3)"/><path class="cls-8" d="M285.4,364.24s-12.32-2.34-18.19,5.34-4.54,18.06-13.56,21.73-12.08,21.21-3.37,26.49-1.84,15-1.84,15-7.87,7.69,1.84,17.38a73.22,73.22,0,0,0,16.93,7.23s-7.08-6.9-5-15.59c0,0,.75,14.45,14.13,15.59s22.11-8.23,22.11-8.23l39.1-9.52s22.77-5.93,22.79-21.72-15.3-13.89-18.22-25.26-3.64-22.54-16.32-26.14S297.77,349.53,285.4,364.24Z" transform="translate(-159.18 -290.3)"/><path class="cls-9" d="M315.07,434.82l-1.13-30.17c-3-6.45-20.77-6.79-26.69-3.63-5.49,2.93-8.32,9.88-6.68,16.39l14.65,37.52c2.13,7.61,11.48,5.51,15,.69C319.43,443.19,315.56,435.62,315.07,434.82Z" transform="translate(-159.18 -290.3)"/><path class="cls-10" d="M272.17,419.56l-2.75-12.08s-5.36-2.48-6.93,3.34,4.6,10.46,9.68,8.74" transform="translate(-159.18 -290.3)"/><path class="cls-10" d="M265.79,404.1c3.28,23,6,38.17,22.47,37.68s37.48-19.46,37.25-39.45-13.79-35.8-30.29-35.31-29.67,17.09-29.43,37.08" transform="translate(-159.18 -290.3)"/><path class="cls-3" d="M302.74,493.88s12.31,10.19,28.41,5.21C331.15,499.09,314.39,513.2,302.74,493.88Z" transform="translate(-159.18 -290.3)"/><ellipse class="cls-9" cx="301.31" cy="417.58" rx="8.15" ry="6.73" transform="translate(-312.12 -115.24) rotate(-26.09)"/><g class="cls-11"><ellipse class="cls-9" cx="269.83" cy="419.64" rx="6.73" ry="8.15" transform="translate(-387.68 153.2) rotate(-60)"/></g><path class="cls-8" d="M270,385.09s3.85-6.88,10.15,0,3.38,17.89,18.38,19.74,5.61,16.19,16,15.61L315.67,445s27.43-38.37,13.19-60.68S279.9,355.14,270,385.09Z" transform="translate(-159.18 -290.3)"/><path class="cls-10" d="M310.45,421.27l5.11-12.35s6.93-2.64,8.05,3.26-7.16,10.74-13.16,9.09" transform="translate(-159.18 -290.3)"/><rect class="cls-12" x="69.54" y="244.46" width="77" height="7.53"/><polygon class="cls-3" points="105.68 250.51 96.73 167.08 4.97 173.47 19.22 250.51 105.68 250.51"/><polygon class="cls-13" points="99.89 251.78 91.38 167.16 0 173.71 13.82 251.84 99.89 251.78"/><ellipse class="cls-12" cx="210.29" cy="501.52" rx="8.7" ry="10.99" transform="translate(-255.57 -237.88) rotate(-11.58)"/><path class="cls-3" d="M398.75,454.61s-18.82-9.06-6.69-20.32-12.2-19.25-5.26-30.76,15.05-6.24,16.36-13.81-8.39-13.38-2.13-24.44,13.55-15.86,22.6-14.45-2.75,23.8,6.53,28.26,8,18.77-6.16,31.21,8.55,20.38-4.78,29S398.75,454.61,398.75,454.61Z" transform="translate(-159.18 -290.3)"/><path class="cls-3" d="M381.15,478.31s13.18-12.36,2.79-17.45,7.07-18.22.55-25-12-.41-13.85-5.81.31-13.14-3.81-21c-5.38-10.31-15.08-10.17-20.89-2.81-4.72,6,9.67,17.45,3.17,23.54s-4,16.64,8.1,22-4.19,18,6.81,20.72A87.7,87.7,0,0,1,381.15,478.31Z" transform="translate(-159.18 -290.3)"/><path class="cls-14" d="M417.58,366.54l.23.08.22.13.19.17.14.2.1.23.05.25v.25l-.06.24-.15.44-.14.43-.14.43-.15.44-.14.43-.14.43-.14.44-.13.44-.14.43-.13.44-.14.44-.13.43-.13.44-.13.44-.13.44-.13.44-.13.44L416,376l-.12.44-.13.44-.12.44-.12.45-.12.44-.12.44-.12.45-.12.44-.12.45-.11.44-.12.45-.11.44-.12.45-.11.45-.11.44-.11.45-.12.45-.1.45-.11.44-.11.45-.11.45-.11.45-.1.45-.11.45-.1.45-.11.45-.1.45-.1.45-.1.46-.1.45-.1.45-.1.45-.2.91-.2.9-.19.91-.2.91-.19.91-.18.91-.19.91-.19.91-.18.91-.18.91-.18.91-.18.91-.18.92-.18.91-.18.91-.35,1.83-.35,1.82-.35,1.83-.35,1.82-.36,1.83-.17.91-.18.91-.18.91-.18.91-.18.9-.18.91-.18.91-.19.9-.18.91-.19.9-.19.91-.19.9-.19.9-.19.9-.54,2.48-.55,2.48-.54,2.48-.55,2.48-.54,2.49-.55,2.48-1.1,5-1.1,5-.55,2.49-.55,2.48-.55,2.48-.54,2.48L397.1,463l-.54,2.48-.55,2.48-.54,2.49-.26,1.24-.27,1.24-.27,1.24-.27,1.25-.26,1.24-.27,1.24-.26,1.24-.27,1.25-.26,1.24-.26,1.24-.26,1.24-.26,1.25-.26,1.24-.26,1.24-.25,1.24-.26,1.25-.25,1.24-.26,1.24-.25,1.25-.25,1.24-.25,1.24-.24,1.25-.25,1.24-.24,1.25-.25,1.24-.24,1.24-.24,1.25-.24,1.24-.07.24-.12.22-.17.19-.2.16-.22.1-.25.06H387l-.25-.05-.23-.1-.21-.14-.17-.19-.13-.21-.08-.24,0-.25,0-.25.24-1.25.24-1.24.24-1.25.25-1.25.24-1.24.25-1.25.25-1.25.24-1.24.26-1.25.25-1.24.25-1.25.26-1.25.25-1.24.26-1.25.26-1.24.26-1.25.26-1.24.26-1.24.26-1.25.26-1.24.27-1.25.26-1.24.26-1.25.27-1.24.27-1.24.27-1.25.26-1.24.27-1.24.54-2.49.55-2.48.54-2.49.55-2.48.54-2.49.55-2.48.55-2.48.55-2.49,1.1-5,1.1-5,.55-2.48.55-2.48.54-2.48.54-2.48.55-2.48.54-2.48.19-.89.19-.9.19-.9.19-.9.18-.89.19-.91.18-.9.18-.9.18-.91.18-.9.18-.91.18-.9.18-.91.17-.91.35-1.82.35-1.83.36-1.82.35-1.83.35-1.83.18-.91.18-.92.18-.91.18-.92.18-.91.18-.92.19-.91.18-.92.19-.91.19-.91.19-.92.19-.91.2-.91.2-.91.2-.92.1-.45.1-.46.1-.45.1-.46.11-.45.1-.46.11-.45.1-.45.11-.46.1-.45.11-.46.11-.45.11-.45.11-.45.11-.46.11-.45.11-.45.12-.45.11-.45.12-.45.11-.46.12-.45.12-.45.12-.45.12-.44L413,378l.12-.45.12-.45.12-.45.13-.45.12-.44.13-.45.13-.45.13-.44.13-.45.13-.44.13-.45.14-.44.13-.45.14-.44.13-.44.14-.45.14-.44.14-.44.14-.44.15-.44.14-.44.15-.44.15-.44.14-.44.11-.23.15-.2.19-.16.22-.13.24-.07.25,0Z" transform="translate(-159.18 -290.3)"/><path class="cls-14" d="M357.35,412.46l.2,0,.2.07.18.11.16.14.13.16.1.18.13.29.13.3.27.59.25.59.26.59.26.6.25.6.25.59.25.6.25.61.25.6.25.6.24.61.24.61.25.61.24.61.23.61.24.61.24.61.23.62.24.61.23.62.23.62.23.62.23.62.23.62.23.62.22.62.23.62.23.62.22.63.22.62.23.62.22.63.22.62.44,1.25.44,1.25.44,1.25.44,1.25.43,1.25.88,2.49.43,1.25.44,1.24.43,1.24.44,1.24.22.62.22.61.22.62.22.61.22.61.22.62.22.61.22.61.62,1.69.62,1.68.62,1.69.62,1.69,1.25,3.38,1.24,3.38,1.25,3.38,1.24,3.38,1.25,3.39.62,1.69.62,1.69.62,1.69.62,1.7.62,1.69.61,1.7.62,1.69.62,1.7.61,1.7.61,1.69.61,1.7.61,1.7.61,1.7.6,1.7.6,1.71.3.85.3.85.3.85.3.85.3.86.3.85,0,.2v.21l0,.21-.06.2-.09.19-.12.17-.15.15-.17.11-.19.09-.21,0-.21,0-.2,0-.21-.06-.19-.09-.17-.12-.14-.15-.12-.18-.09-.19-.29-.85-.3-.85-.3-.85-.3-.85-.3-.85-.3-.85-.6-1.7-.6-1.7-.61-1.7-.6-1.7-.61-1.69-.61-1.7-.62-1.69-.61-1.7-.62-1.69-.61-1.69-.62-1.7-.62-1.69-.62-1.69-.62-1.69-.62-1.69-1.24-3.39L377,470.26l-1.25-3.38-1.24-3.38-1.25-3.38-.62-1.69-.62-1.69-.62-1.69-.62-1.69-.22-.61-.22-.61-.22-.62-.23-.62-.22-.61-.22-.62-.22-.62-.22-.62-.44-1.24-.43-1.24-.44-1.25-.44-1.24-.87-2.5-.43-1.25-.44-1.24-.44-1.25-.43-1.25-.45-1.25-.22-.62-.22-.62-.22-.62-.22-.62-.23-.62-.22-.62-.23-.62-.22-.62-.23-.61-.22-.62-.23-.61-.23-.62-.23-.61-.23-.61-.23-.62-.24-.6-.23-.61-.24-.61-.23-.61-.24-.6-.24-.6-.24-.6-.24-.6-.25-.6-.24-.6-.25-.59-.24-.6-.25-.59-.25-.59-.26-.58-.25-.59-.26-.58-.25-.58-.13-.29-.13-.29-.07-.2,0-.21v-.21l0-.2.07-.2.11-.18.14-.16.16-.13.18-.1.2-.07.21,0Z" transform="translate(-159.18 -290.3)"/><path class="cls-15" d="M405.52,495.57H358v26.3c0,8.35,10.84,19.94,10.84,19.94l25,.52s11.68-11.76,11.68-20.46Z" transform="translate(-159.18 -290.3)"/></svg>