<?xml version="1.0" encoding="utf-8"?>
<!-- Generator: Adobe Illustrator 24.3.0, SVG Export Plug-In . SVG Version: 6.00 Build 0)  -->
<svg version="1.1" id="Layer_1" xmlns="http://www.w3.org/2000/svg" xmlns:xlink="http://www.w3.org/1999/xlink" x="0px" y="0px"
	 viewBox="0 0 1366 768" style="enable-background:new 0 0 1366 768;" xml:space="preserve">
<style type="text/css">
	.st0{fill:#DFE3E8;}
	.st1{fill:#00BDFE;}
	.st2{fill:none;stroke:#1B61EF;stroke-width:2.1549;stroke-miterlimit:10;}
</style>
<g>
	<g>
		<g>
			<path class="st0" d="M790,161.7c-5.9,0-14.1-0.5-25.4-1.8c-21.1-2.4-50.6-7.1-87.7-14.1c-31.8-6-61.4-13.3-83.1-20.5
				c-34.1-11.4-33.1-17.1-32.7-18.9c0.2-1.2,0.8-1.2,5.3-1.4c2.2-0.1,6-0.2,11.3-0.1c8.8,0.1,23,0.6,40.9,2.6l-0.3,2.7
				c-29.1-3.2-49.2-2.6-54.3-2.3c1.4,2.5,8.8,7.6,30.7,14.9c21.6,7.2,51,14.5,82.7,20.4c37,7,66.5,11.7,87.5,14.1
				c34.7,3.9,37.2,0.3,37.3-0.5c0.1-0.7-0.4-3.3-12.7-8.3c-8.9-3.6-22.2-7.7-40.7-12.6l0.7-2.7c50.2,13.3,56.3,19.5,55.4,24.1
				C804.5,159.6,802,161.7,790,161.7z"/>
		</g>
		<g>
			<path class="st1" d="M632.7,92.9c-0.1,0-0.2,0-0.2-0.1c-0.2-0.1-0.3-0.4-0.2-0.7c9.4-17.5,28.2-30.6,46.9-32.7
				c0.3,0,0.5,0.2,0.6,0.4c0,0.3-0.2,0.5-0.4,0.6c-18.4,2-36.9,14.9-46.1,32.1C633,92.8,632.9,92.9,632.7,92.9z"/>
		</g>
		<g>
			<path class="st1" d="M627.2,108.5C627.2,108.5,627.1,108.5,627.2,108.5c-0.4-0.1-0.5-0.3-0.5-0.6c0.8-4.5,2.2-8.9,4.3-13.2
				c0.1-0.2,0.4-0.4,0.7-0.2c0.2,0.1,0.4,0.4,0.2,0.7c-2,4.2-3.4,8.5-4.2,12.9C627.6,108.3,627.4,108.5,627.2,108.5z"/>
		</g>
		<g>
			<path class="st2" d="M734.2,121"/>
		</g>
		<g>
			<circle class="st1" cx="605.2" cy="83.5" r="1.5"/>
		</g>
		<g>
			<path class="st1" d="M756.7,184c-4.4,0-8-3.6-8-8s3.6-8,8-8s8,3.6,8,8S761.1,184,756.7,184z M756.7,169c-3.9,0-7,3.1-7,7
				s3.1,7,7,7s7-3.1,7-7S760.6,169,756.7,169z"/>
		</g>
		<g>
			<path class="st1" d="M617.7,68c-4.4,0-8-3.6-8-8s3.6-8,8-8s8,3.6,8,8S622.1,68,617.7,68z M617.7,53c-3.9,0-7,3.1-7,7s3.1,7,7,7
				s7-3.1,7-7S621.6,53,617.7,53z"/>
		</g>
		<g>
			<circle class="st1" cx="593.2" cy="50.5" r="1.5"/>
		</g>
		<g>
			<circle class="st1" cx="744.7" cy="194" r="1.5"/>
		</g>
		<g>
			<circle class="st1" cx="777.7" cy="173" r="1.5"/>
		</g>
	</g>
	<g>
		<g>
			<path class="st1" d="M680.1,139.2c-22.8-4.5-44.8-9.6-63.8-14.7l-1.3-0.3v-1.3c-0.2-7.7,1-15.2,3.3-22.5c1.7-5.2,4-10.1,6.8-14.8
				c19.8-32.2,62.1-42.3,94.3-22.5c22,13.6,34.5,38,32.4,63.8c-0.6,7.6-2.5,15-5.5,22l-0.5,1.2l-1.3-0.2
				C725.2,147.4,702.9,143.7,680.1,139.2z M618.5,121.4c18.6,5,40,9.9,62.3,14.3s44,8.1,63,10.6c2.6-6.3,4.2-12.9,4.7-19.7
				c1.9-24.5-9.9-47.7-30.8-60.6c-30.6-18.8-70.7-9.2-89.5,21.3c-2.7,4.4-4.9,9.1-6.5,14C619.6,107.9,618.5,114.6,618.5,121.4z"/>
		</g>
	</g>
	<g>
		<g>
			<path class="st1" d="M670.2,188.7c-7.8-1.5-15.4-4.5-22.5-8.8c-20-12.3-32.2-33.6-32.6-57.1v-2.3l2.2,0.6
				c18.8,5.1,40.8,10.1,63.5,14.7c22.7,4.5,45,8.2,64.3,10.8l2.3,0.3l-0.9,2.1c-1.3,2.9-2.8,5.8-4.4,8.5
				C726.6,182.5,697.5,194.2,670.2,188.7z M618.6,125c1.2,21.4,12.6,40.6,30.9,51.9c30.6,18.8,70.7,9.2,89.5-21.3
				c1.2-1.9,2.3-3.9,3.3-6c-18.9-2.5-40.3-6.1-62.2-10.5C658.2,134.8,637,129.9,618.6,125z"/>
		</g>
	</g>
	<g>
		<g>
			<g>
				<path class="st1" d="M618.6,125l-2.2-0.6c-57.6-15.5-56.3-22-55.8-24.2c0.4-2.1,1.7-8.6,59.7-1.1l2.1,0.3l-0.7,2
					c-2.2,6.9-3.3,14.1-3.2,21.3L618.6,125z M564,100.9c0.2,0.5,1.8,3,14.4,7.9c9,3.5,21.6,7.5,36.7,11.6c0.1-6.2,1-12.3,2.7-18.2
					c-15.3-1.9-28.3-3-37.8-3.2C566.8,98.9,564.3,100.6,564,100.9z"/>
			</g>
		</g>
		<g>
			<g>
				<path class="st1" d="M742.3,149.7l0.9-2.1c2.9-6.6,4.7-13.7,5.2-20.9l0.2-2.1l2,0.5c56.5,15.3,55.2,21.8,54.8,23.9
					c-0.4,2.2-1.7,8.7-60.8,1L742.3,149.7z M751.8,129c-0.7,6.1-2.2,12.1-4.4,17.8c15.5,2,28.7,3.1,38.4,3.3
					c13.5,0.3,15.9-1.4,16.3-1.8c-0.2-0.5-1.8-2.9-14.1-7.8C779.1,137.1,766.7,133.1,751.8,129z"/>
			</g>
		</g>
	</g>
</g>
</svg>
