<svg xmlns="http://www.w3.org/2000/svg" version="1.1" xmlns:xlink="http://www.w3.org/1999/xlink" xmlns:svgjs="http://svgjs.com/svgjs" width="1500" height="150" preserveAspectRatio="none" viewBox="0 0 1500 150"><g mask="url(&quot;#SvgjsMask1204&quot;)" fill="none"><path d="M 0,66 C 33.4,74.2 100.2,113.8 167,107 C 233.8,100.2 267.2,31.6 334,32 C 400.8,32.4 434.2,110.8 501,109 C 567.8,107.2 601.2,28.4 668,23 C 734.8,17.6 768.2,85.6 835,82 C 901.8,78.4 935.2,-1.2 1002,5 C 1068.8,11.2 1102.2,107.4 1169,113 C 1235.8,118.6 1269.8,28.6 1336,33 C 1402.2,37.4 1467.2,114.6 1500,135L1500 150L0 150z" fill="rgba(122, 8, 250, 1)"></path></g><defs><mask id="SvgjsMask1204"><rect width="1500" height="150" fill="#ffffff"></rect></mask></defs></svg>